<svg id="Classifieds" xmlns="http://www.w3.org/2000/svg" viewBox="0 0 226.77 226.77"><defs><style>.cls-1{fill:#f99300;}.cls-1,.cls-2{stroke:#222;stroke-miterlimit:10;stroke-width:3px;}.cls-2{fill:#fff;}.cls-3{fill:#222;}</style></defs><path class="cls-1" d="M48.48,95.88,57.19,78.5A11.42,11.42,0,0,1,66,72.28a298.65,298.65,0,0,1,34.81-2,266.92,266.92,0,0,1,32.89,2,11.4,11.4,0,0,1,8.85,6.22l8.72,17.38h15.07a2.84,2.84,0,0,1,2.71,2l1.11,3.3a2.84,2.84,0,0,1-1.81,3.6,2.59,2.59,0,0,1-.55.13l-8.57,1.07,5.66,3.76a2.86,2.86,0,0,1,1,1.15l2.51,5.34v45.23a5.7,5.7,0,0,1-5.71,5.7H148.45a5.7,5.7,0,0,1-5.71-5.7v-4c-14.29.74-27.61,1.11-41.89,1.11s-29.52-.37-43.81-1.11v4a5.7,5.7,0,0,1-5.71,5.7H37.05a5.71,5.71,0,0,1-5.71-5.7V127.22L34,111.34a2.89,2.89,0,0,1,1.23-1.9l5.29-3.51-8.57-1.07a2.85,2.85,0,0,1-2.48-3.18,2.57,2.57,0,0,1,.12-.55l1.11-3.3a2.85,2.85,0,0,1,2.71-2ZM68.77,81.13a5.73,5.73,0,0,0-4.4,3.39L58.75,97.61a2.85,2.85,0,0,0,2.63,4h77a2.93,2.93,0,0,0,1.13-.23,2.85,2.85,0,0,0,1.5-3.74l-5.62-13.09a5.73,5.73,0,0,0-4.4-3.39,207.23,207.23,0,0,0-62.24,0Zm13.6,57.67"/><path class="cls-2" d="M82.24,138.37a2.08,2.08,0,0,0-2.2,1.94v6a2.08,2.08,0,0,0,2.2,2h35.05a2.08,2.08,0,0,0,2.2-2v-6a2.08,2.08,0,0,0-2.2-1.94Z"/><path class="cls-2" d="M48.71,117.15l-.36,0a3.08,3.08,0,0,0-2.86,3.11v8.17c0,1.57.45,4.26,2,4.26H72a2.88,2.88,0,0,0,2-.83c1.11-1.11,2-4.59.84-4.71,0,0-6.9-7.83-7.53-7.91l-18.66-2.07Z"/><path class="cls-2" d="M150.83,117.15l-18.67,2.07a2.87,2.87,0,0,0-1.67.81l-5.85,6.1c-1.12,1.11-2,4.59-.84,5.71a2.86,2.86,0,0,0,2,.83h24.52c1.58,0,3.7-2.95,3.7-3.52V121c0-2.58-1.28-3.85-2.86-3.85-.12,0-.91.14-1,.15Z"/><path class="cls-2" d="M182.36,10.16a7.17,7.17,0,0,1,2.78.57c2.43,1.38,4.29,6.75,5.72,9.42l14.3,27.94c.81,1.63,1.61,3.26,2.42,4.88a37.34,37.34,0,0,1,2.29,4.62,4.61,4.61,0,0,1-.09,2.87c-1.08,2.76-4.33,3.68-6.86,5L186.06,74,160.85,86.86,152.66,91a23.83,23.83,0,0,1-5.28,2.38c-2.3.49-5.92-1.9-7.75-2.78-4.74-2.26-9.25-4.47-14.12-6.6-2.16-.94-5.34-2-7-3.52-4.74-4.18-4.46-9.23-2.82-15.53.57-3,1.14-6,1.72-9.07q.81-4.24,1.63-8.49c.57-2.07.46-4,1.67-5.59s3.61-2.37,5.5-3.39l11.48-5.85,38.82-19.85L181,10.46Zm-67,67.9"/><path class="cls-3" d="M166.89,33.17l-2.12.66-5.05,1.86c-.67.24-2.42,1.32-3,1.24l-1.86-3.58-2.7,1.41L154,38.44a7.88,7.88,0,0,0-1.64,1c-2.57,1.56-4.8,3.7-5.53,6.68a8.25,8.25,0,0,0,.13,3.59c.94,3.43,3.11,8.29,6.51,9.69a12.48,12.48,0,0,0,4.25.53l2.87-.44,3-.79c1.21-.42,2.93-1.34,4.29-1a2.13,2.13,0,0,1,.27.89c-.67,1.31-2.51,1.89-3.9,2.48a76.31,76.31,0,0,1-9.34,3.63l3.54,8a67.2,67.2,0,0,0,8.5-2.61,25.65,25.65,0,0,1,2.7-1l1.64,3.19L174,70.84l-1.64-3.32h.09l2.12-1.33a13.64,13.64,0,0,0,4.29-4.78c2.25-5.06-2-13.29-6.19-15-2.6-1-9.06.68-11.29,1.37-1.29.4-2.92.92-3.28-.53.52-1.1,2.25-1.48,3.28-2.08,2.92-1.71,6.31-2.5,9.34-4l-3.81-8.06Z"/></svg>